<svg width="42" height="29" viewBox="0 0 42 29" fill="none" xmlns="http://www.w3.org/2000/svg">
<path d="M14.048 23.3508C14.048 23.4707 13.8532 23.5666 13.6077 23.5666C13.3282 23.5846 13.1335 23.4887 13.1335 23.3508C13.1335 23.2308 13.3282 23.1349 13.5738 23.1349C13.8278 23.1169 14.048 23.2128 14.048 23.3508ZM11.4145 23.0809C11.3552 23.2008 11.5246 23.3388 11.7786 23.3747C11.9988 23.4347 12.2528 23.3747 12.3036 23.2548C12.3544 23.1349 12.1935 22.997 11.9395 22.943C11.7194 22.901 11.4738 22.961 11.4145 23.0809ZM15.1573 22.979C14.9117 23.0209 14.7423 23.1349 14.7677 23.2728C14.7931 23.3927 15.0133 23.4707 15.2673 23.4287C15.5129 23.3867 15.6823 23.2728 15.6569 23.1529C15.6315 23.0389 15.4028 22.961 15.1573 22.979ZM20.729 0C8.98427 0 0 6.31442 0 14.6317C0 21.2819 5.91048 26.9727 14.3528 28.9756C15.4367 29.1135 15.8177 28.6398 15.8177 28.25C15.8177 27.8782 15.7923 25.8274 15.7923 24.5681C15.7923 24.5681 9.86492 25.4676 8.62016 22.7811C8.62016 22.7811 7.65484 21.0361 6.26613 20.5863C6.26613 20.5863 4.32702 19.6449 6.40161 19.6628C6.40161 19.6628 8.51008 19.7828 9.67016 21.21C11.5246 23.5247 14.6323 22.859 15.8431 22.4633C16.0379 21.5038 16.5883 20.8382 17.198 20.4424C12.4645 20.0706 7.68871 19.5849 7.68871 13.8162C7.68871 12.1671 8.33226 11.3396 9.6871 10.2842C9.46694 9.89439 8.74718 8.2873 9.90726 6.21248C11.677 5.8227 15.75 7.83156 15.75 7.83156C17.4435 7.49575 19.2641 7.32185 21.0677 7.32185C22.8714 7.32185 24.6919 7.49575 26.3855 7.83156C26.3855 7.83156 30.4585 5.8167 32.2282 6.21248C33.3883 8.2933 32.6686 9.89439 32.4484 10.2842C33.8032 11.3456 34.6331 12.1731 34.6331 13.8162C34.6331 19.6029 29.6456 20.0646 24.9121 20.4424C25.6911 20.9161 26.3516 21.8156 26.3516 23.2248C26.3516 25.2457 26.3262 27.7463 26.3262 28.238C26.3262 28.6278 26.7157 29.1015 27.7911 28.9636C36.2589 26.9727 42 21.2819 42 14.6317C42 6.31442 32.4738 0 20.729 0ZM8.23065 20.6823C8.12056 20.7422 8.14597 20.8802 8.28992 20.9941C8.4254 21.09 8.62016 21.132 8.73024 21.0541C8.84032 20.9941 8.81492 20.8562 8.67097 20.7422C8.53548 20.6463 8.34073 20.6043 8.23065 20.6823ZM7.31613 20.1965C7.25686 20.2745 7.34153 20.3704 7.51089 20.4304C7.64637 20.4904 7.81573 20.4724 7.875 20.3884C7.93427 20.3105 7.8496 20.2145 7.68024 20.1546C7.51089 20.1186 7.3754 20.1366 7.31613 20.1965ZM10.0597 22.3313C9.92419 22.4093 9.975 22.5892 10.1698 22.7031C10.3645 22.841 10.6101 22.859 10.7202 22.7631C10.8302 22.6851 10.7794 22.5052 10.6101 22.3913C10.4238 22.2534 10.1698 22.2354 10.0597 22.3313ZM9.09436 21.4498C8.95887 21.5098 8.95887 21.6657 9.09436 21.8036C9.22984 21.9416 9.45847 22.0015 9.56855 21.9416C9.70403 21.8636 9.70403 21.7077 9.56855 21.5698C9.45 21.4318 9.22984 21.3719 9.09436 21.4498Z" fill="black"/>
</svg>
