<svg width="49" height="37" viewBox="0 0 49 37" fill="none" xmlns="http://www.w3.org/2000/svg">
<path d="M11.9644 30.8333H16.5828V18.1294L9.98505 12.5247V28.5915C9.98505 29.8301 10.8708 30.8333 11.9644 30.8333Z" fill="#4285F4"/>
<path d="M32.4172 30.8333H37.0356C38.1292 30.8333 39.0149 29.8301 39.0149 28.5915V12.5247L32.4172 18.1294V30.8333Z" fill="#34A853"/>
<path d="M32.4172 8.4146V18.1294L39.0149 12.5247V9.53554C39.0149 6.76496 36.2225 5.18257 34.2646 6.84529L32.4172 8.4146Z" fill="#FBBC04"/>
<path d="M16.5828 18.1294V8.41458L24.5 15.1402L32.4173 8.41458V18.1294L24.5 24.855L16.5828 18.1294Z" fill="#EA4335"/>
<path d="M9.98505 9.53554V12.5247L16.5828 18.1294V8.4146L14.7354 6.84529C12.7775 5.18257 9.98505 6.76496 9.98505 9.53554V9.53554Z" fill="#C5221F"/>
</svg>
