<svg width="35" height="35" viewBox="0 0 35 35" fill="none" xmlns="http://www.w3.org/2000/svg">
<path d="M17.5 1.45834C14.3272 1.45834 11.2258 2.39917 8.58771 4.16185C5.94968 5.92453 3.89358 8.4299 2.67942 11.3611C1.46526 14.2924 1.14759 17.5178 1.76656 20.6296C2.38553 23.7414 3.91335 26.5997 6.15682 28.8432C8.40028 31.0867 11.2586 32.6145 14.3704 33.2334C17.4822 33.8524 20.7076 33.5347 23.6389 32.3206C26.5701 31.1064 29.0755 29.0503 30.8381 26.4123C32.6008 23.7742 33.5417 20.6728 33.5417 17.5C33.5417 13.2455 31.8516 9.16524 28.8432 6.15684C25.8348 3.14844 21.7545 1.45834 17.5 1.45834ZM29.3504 9.02272L28.0146 13.1396C28.001 13.2012 27.991 13.2635 27.9847 13.3263L23.7708 14.6956C23.7269 14.6456 23.6799 14.5984 23.6301 14.5542L18.3969 10.7523C18.3429 10.7199 18.2869 10.6912 18.2292 10.6663V6.24022C18.287 6.21549 18.343 6.18674 18.3969 6.15418L21.9136 3.60209C24.9121 4.55995 27.5207 6.46134 29.3504 9.02272ZM13.0863 3.60064L16.6031 6.15272C16.6569 6.18528 16.713 6.21403 16.7708 6.23876V10.6648C16.7126 10.6897 16.6561 10.7184 16.6017 10.7508L11.3684 14.5542C11.3186 14.5984 11.2716 14.6456 11.2277 14.6956L7.0153 13.3263C7.00896 13.2635 6.99897 13.2012 6.9854 13.1396L5.64957 9.02272C7.47904 6.46079 10.0876 4.55888 13.0863 3.60064ZM2.92176 17.3979L6.43124 14.8458C6.47802 14.8047 6.52187 14.7604 6.56249 14.7131L10.7844 16.0854C10.79 16.145 10.7992 16.2042 10.8121 16.2626L12.8114 22.4146C12.837 22.4745 12.8667 22.5324 12.9004 22.5881L10.2936 26.1771C10.2319 26.1631 10.1693 26.1531 10.1062 26.1472H5.77717C3.91956 23.6469 2.91655 20.6148 2.91665 17.5C2.91665 17.4657 2.92176 17.4322 2.92176 17.3979ZM12.896 31.3301L11.5573 27.2052C11.5324 27.1478 11.5039 27.0921 11.472 27.0382L14.0846 23.4413C14.1442 23.4546 14.2046 23.4644 14.2654 23.4704H20.7346C20.7954 23.4644 20.8558 23.4546 20.9154 23.4413L23.528 27.0382C23.4958 27.0919 23.4673 27.1477 23.4427 27.2052L22.1039 31.3301C19.1168 32.3344 15.8832 32.3344 12.896 31.3301ZM29.2228 26.1479H24.8937C24.8307 26.1538 24.7681 26.1638 24.7063 26.1778L22.0981 22.5889C22.1317 22.5328 22.1614 22.4746 22.1871 22.4146L24.1864 16.2604C24.1993 16.202 24.2085 16.1428 24.2142 16.0832L28.4375 14.7139C28.4788 14.7607 28.5231 14.8048 28.5702 14.8458L32.0797 17.3928C32.0797 17.4293 32.0848 17.4657 32.0848 17.5C32.0846 20.6153 31.0811 23.6476 29.2228 26.1479Z" fill="black"/>
</svg>
