<svg width="45" height="30" viewBox="0 0 45 30" fill="none" xmlns="http://www.w3.org/2000/svg">
<g clip-path="url(#clip0_4_28)">
<path d="M14.152 30C31.134 30 40.4208 18.4593 40.4208 8.45163C40.4208 8.12387 40.4126 7.7976 40.3947 7.47269C42.2015 6.4002 43.761 5.07221 45 3.55097C43.3457 4.15422 41.5656 4.56026 39.6982 4.74334C41.6042 3.80565 43.0676 2.32256 43.758 0.554441C41.9456 1.43643 39.9629 2.05814 37.8954 2.39279C36.2106 0.920723 33.8122 0 31.1562 0C26.0577 0 21.9232 3.39168 21.9232 7.5724C21.9232 8.16673 22.0043 8.74483 22.1627 9.29927C14.4894 8.98253 7.68523 5.96891 3.13154 1.38647C2.31139 2.54216 1.87997 3.85574 1.88137 5.19299C1.88137 7.82051 3.51131 10.1401 5.9899 11.4971C4.5238 11.4604 3.08985 11.1356 1.80858 10.5499C1.80722 10.5817 1.80722 10.6127 1.80722 10.6466C1.80722 14.3144 4.98965 17.3767 9.21416 18.0706C8.42072 18.2479 7.602 18.3375 6.77966 18.3372C6.19729 18.3368 5.61627 18.2911 5.04446 18.2005C6.21988 21.2097 9.62821 23.3995 13.6691 23.4607C10.5092 25.4924 6.52854 26.7025 2.20225 26.7025C1.45795 26.7025 0.722708 26.6678 0 26.5977C4.08604 28.7461 8.93736 30 14.152 30Z" fill="#1DA1F2"/>
</g>
<defs>
<clipPath id="clip0_4_28">
<rect width="45" height="30" fill="white"/>
</clipPath>
</defs>
</svg>
